<svg width="488" height="338" viewBox="0 0 488 338" fill="none" xmlns="http://www.w3.org/2000/svg">
<path fill-rule="evenodd" clip-rule="evenodd" d="M280.973 29.2354C317.291 15.1114 345.001 7.44412 381.858 1.66002C398.672 -1.03026 431.897 -0.357687 441.986 3.00516C454.899 7.17509 462.567 16.053 462.836 26.8141C463.105 42.9558 453.554 60.3081 432.032 83.0409C420.06 95.5507 391.947 119.091 388.987 119.225C388.046 119.225 386.701 118.015 385.894 116.669C384.683 114.383 386.432 112.365 399.614 100.662C428.131 75.6427 447.77 53.1789 453.016 40.2655C453.958 37.8443 454.765 32.7327 454.765 28.8318C454.765 22.5097 454.361 21.4336 450.057 17.3982C442.389 10.4034 432.973 8.38572 410.106 8.52023C373.115 8.78926 321.865 20.3575 279.897 37.9788C264.293 44.4355 261.468 44.9735 260.258 41.6107C258.912 38.2478 261.468 36.7682 280.973 29.2354ZM382.397 35.5576C378.899 36.0956 377.016 32.3293 379.303 29.5045C381.724 26.6797 385.221 28.0248 385.221 31.7912C385.221 34.2125 384.414 35.2886 382.397 35.5576ZM141.348 44.1665C138.388 47.1258 139.464 50.6232 143.096 50.6232C147.132 50.6232 148.88 47.3948 146.459 44.57C144.441 42.1488 143.5 42.0143 141.348 44.1665ZM240.081 54.6585C236.314 54.6585 234.566 52.7753 235.776 49.816C236.987 46.5877 242.502 48.0673 243.04 51.5647C243.444 54.1205 242.906 54.6585 240.081 54.6585ZM312.584 50.6231C295.5 53.0443 268.194 61.3842 244.654 71.4727C211.833 85.4622 161.256 114.517 148.342 126.623C143.231 131.466 142.155 136.712 146.325 136.712C147.67 136.712 154.126 132.677 160.718 127.834C192.597 103.891 233.355 82.7719 272.23 69.724C297.249 61.3842 308.414 59.501 330.34 59.3665C347.557 59.3665 349.71 59.6355 353.207 62.1913C359.664 66.8993 360.874 71.0692 358.453 79.409C355.628 88.9595 355.763 89.6321 359.798 89.6321C364.103 89.6321 367.331 82.6374 367.6 72.5488C367.734 66.3612 367.196 65.0161 363.161 60.8461C356.301 53.7169 347.288 50.4886 332.895 49.9505C326.17 49.6815 317.023 49.9505 312.584 50.6231ZM111.754 129.045C112.831 119.225 167.04 78.7365 203.089 60.7117C218.424 53.0444 220.845 52.2373 224.612 53.3134C226.898 53.986 229.185 54.7931 229.454 55.1966C230.665 56.4072 220.307 62.8639 203.627 71.3383C183.181 81.8304 161.794 96.4924 136.505 117.477C123.592 128.372 117.404 132.677 114.848 132.677C111.754 132.677 111.351 132.139 111.754 129.045ZM480.995 65.8231C479.919 68.7824 483.282 72.6833 485.972 71.7418C489.335 70.3966 488.259 64.8815 484.627 64.3435C483.013 64.0745 481.399 64.747 480.995 65.8231ZM259.047 94.0711C274.382 86.4038 289.178 79.6781 291.734 79.0056C322.329 70.9543 325.86 81.1333 317.285 96.3456C306.187 108.452 246.766 143.325 243.134 142.249C231.667 141.629 255.179 127.654 276.477 114.996C289.843 107.052 302.336 99.6262 304.764 96.3456C311.079 90.7297 311.079 82.9737 295.617 87.1987C292.792 87.1987 257.836 103.084 238.332 113.979C232.01 117.611 228.916 116.4 230.261 110.885C230.934 108.464 236.718 104.967 259.047 94.0711ZM59.9666 95.0127C52.7028 102.949 48.1293 113.038 47.1877 123.126C46.3807 131.197 45.9771 132.004 43.4214 131.6C39.7895 131.062 38.8479 134.156 38.8479 146.128C38.8479 155.678 41.4036 162.808 47.3223 169.802C51.6267 174.914 52.0302 177.604 48.2639 176.394C44.7665 175.318 44.901 177.066 48.2639 183.926C50.5506 188.231 51.6267 189.172 53.6444 188.5C55.5276 187.827 56.3347 188.231 56.3347 189.845C56.3347 190.921 57.2763 192.266 58.4869 192.804C59.563 193.208 60.2356 194.418 59.8321 195.36C59.025 197.512 64.1365 200.472 70.8622 201.951C75.8392 203.027 76.1082 202.355 72.6109 196.705C68.3064 189.711 61.9843 172.762 59.8321 161.866C57.1418 148.953 57.0073 133.618 59.563 131.466C61.0427 130.255 61.5807 130.928 62.2533 134.963C62.6568 137.788 63.0604 141.958 63.0604 144.245C63.0604 155.678 78.1259 198.588 82.1614 198.588C83.5065 198.588 87.811 189.307 89.4251 183.254C90.2322 179.756 90.0977 179.487 87.4074 180.429C84.0446 181.505 83.91 180.295 86.6003 173.972C88.618 168.995 89.2906 157.427 87.811 151.778C87.0039 148.818 86.7348 148.953 82.2959 153.795L77.7224 158.907L78.5295 154.199C79.0675 151.643 79.7401 144.379 80.1437 138.057L80.8162 126.623L78.1259 129.045C76.5118 130.524 74.7631 131.197 73.956 130.659C73.1489 130.255 71.2657 125.682 69.6516 120.57C68.1719 115.459 66.2887 111.423 65.4816 111.558C64.6746 111.692 63.8675 110.616 63.733 109.137C63.5984 107.657 62.9259 105.37 62.3878 104.025C61.7152 102.411 61.9843 101.738 63.5984 101.738C65.2126 101.738 65.7507 100.393 65.7507 95.6853C65.7507 92.3224 65.4816 89.6321 65.2126 89.6321C64.9436 89.6321 62.5223 92.0534 59.9666 95.0127ZM359.933 100.124C362.219 101.335 362.892 101.335 363.564 99.5862C363.968 98.3755 364.91 97.703 365.582 97.972C368.003 98.7791 402.035 137.385 402.035 139.268C402.035 144.11 387.911 178.546 384.683 181.64C382.127 184.061 375.671 186.348 360.471 190.383L339.755 195.764L335.72 191.459C325.766 180.833 303.168 155.275 302.764 154.199C302.495 153.526 303.571 152.719 305.051 152.181C307.338 151.509 307.607 150.836 306.531 148.684C304.513 145.186 305.454 144.11 312.718 141.285C316.754 139.806 318.502 138.326 317.964 137.116C317.561 136.174 316.888 134.56 316.485 133.484C314.87 129.314 328.456 129.179 338.141 133.215L342.177 134.963V124.068C342.177 110.885 344.598 103.891 348.768 104.967C350.786 105.505 352.4 104.698 354.417 102.142C356.704 99.1826 357.511 98.9136 359.933 100.124ZM348.23 137.25C350.248 135.232 361.547 105.505 360.74 104.025C357.78 98.9136 348.364 117.207 347.288 130.39C346.75 136.981 346.885 138.461 348.23 137.25ZM390.942 129.688L390.936 129.682C387.687 126.104 383.399 121.382 379.303 116.804C372.442 109.271 366.389 103.084 365.851 103.084C364.102 103.084 353.341 135.098 354.417 137.116C355.09 138.057 362.623 146.666 371.097 155.948C381.455 167.516 386.835 172.493 387.508 171.282C388.046 170.34 391.005 162.673 394.099 154.333L399.749 139.268L395.713 134.963C394.847 133.989 393.132 132.101 390.945 129.692L390.942 129.688ZM346.885 117.88C348.364 113.845 349.44 110.078 349.575 109.406C349.575 108.868 349.037 108.464 348.364 108.464C346.616 108.464 344.194 116.131 344.194 121.108C344.329 124.74 344.598 124.202 346.885 117.88ZM338.141 135.905L331.012 134.291C321.731 132.139 319.982 132.273 319.982 134.694C319.982 137.654 322.269 138.057 330.743 136.981L338.141 135.905ZM338.545 143.438C341.639 142.631 344.194 141.42 344.194 140.747C344.194 139.94 340.697 139.402 336.527 139.537C324.152 139.671 309.221 144.11 309.221 147.608C309.221 150.298 313.256 150.298 322.941 147.608C328.322 146.128 335.316 144.245 338.545 143.438ZM380.513 171.686C380.513 171.148 374.191 163.749 366.255 155.14C358.453 146.397 351.593 139.402 351.055 139.402C350.517 139.402 348.902 140.613 347.557 142.093C345.271 144.648 345.54 145.052 358.318 159.176C365.582 167.112 372.308 174.51 373.249 175.587C374.864 177.335 375.402 177.201 377.823 175.048C379.303 173.703 380.513 172.224 380.513 171.686ZM374.864 183.119C375.133 182.85 367.869 174.51 358.856 164.422C349.844 154.333 341.504 146.128 340.294 146.262C336.527 146.397 307.876 154.468 307.876 155.409C307.876 156.889 339.217 191.19 340.966 191.594C342.446 191.997 373.787 184.195 374.864 183.119ZM382.665 179.622C384.414 178.008 385.49 176.125 385.087 175.587C384.011 173.703 382.531 174.107 379.975 176.932C376.343 180.967 378.764 183.254 382.665 179.622ZM367.744 115.637L367.505 116.233L367.505 116.234C366.29 119.263 364.063 124.821 362.489 129.179L359.126 138.057L363.027 142.496L366.928 146.801L368.945 141.958C369.053 141.69 369.175 141.385 369.309 141.05L369.31 141.048C370.524 138.019 372.752 132.462 374.326 128.103L377.689 119.225L373.788 114.786L369.887 110.482L367.869 115.324L367.744 115.637ZM372.981 118.822C374.057 121.377 367.331 140.747 365.448 140.747C362.623 140.747 363.027 136.039 366.389 126.623C370.156 116.4 371.501 114.786 372.981 118.822ZM371.097 166.574C370.963 168.323 350.92 147.742 350.92 145.859C350.92 143.169 353.88 145.59 362.085 154.737C367.062 160.252 371.097 165.498 371.097 166.574ZM372.442 169.533C372.442 170.744 373.384 172.089 374.46 172.627C377.823 173.838 378.092 172.358 375.133 169.668C372.711 167.381 372.442 167.381 372.442 169.533ZM29.4319 116.535C28.7593 116.535 28.0867 115.593 28.0867 114.383C28.0867 113.307 28.7593 112.769 29.4319 113.172C30.239 113.576 30.777 114.517 30.777 115.324C30.777 115.997 30.239 116.535 29.4319 116.535ZM33.0638 113.441C32.5257 113.845 32.1222 114.921 32.1222 115.728C32.1222 116.535 32.7947 116.4 33.7363 115.459C34.5434 114.652 34.947 113.576 34.6779 113.172C34.2744 112.769 33.4673 112.903 33.0638 113.441ZM214.119 121.915C211.833 121.915 210.488 118.687 211.564 115.862C211.967 114.786 213.178 113.845 214.119 113.845C215.195 113.845 216.81 114.786 217.751 115.862C219.096 117.477 219.096 118.284 217.751 119.898C216.81 120.974 215.195 121.915 214.119 121.915ZM328.322 115.459C326.035 117.746 326.304 120.301 329.263 121.781C332.626 123.664 335.989 120.032 333.971 116.804C332.088 113.979 330.34 113.441 328.322 115.459ZM27.9523 120.57C27.1452 120.57 27.0107 119.898 27.4142 119.225C27.8177 118.418 28.8938 117.88 29.5664 117.88C30.3735 117.88 30.508 118.418 30.1045 119.225C29.7009 119.898 28.6248 120.57 27.9523 120.57ZM32.1222 119.225C32.1222 119.898 32.7947 120.57 33.4673 120.57C34.2744 120.57 34.8124 119.898 34.8124 119.225C34.8124 118.418 34.2744 117.88 33.4673 117.88C32.7947 117.88 32.1222 118.418 32.1222 119.225ZM175.379 161.597C168.519 154.871 172.958 144.783 188.293 131.735C196.901 124.471 201.071 122.992 202.551 126.758C203.089 128.103 199.726 132.273 191.521 139.94C177.128 153.661 176.59 156.217 188.831 156.217C193.27 156.217 199.726 155.678 203.089 155.006C208.335 154.064 209.411 154.333 210.218 156.351C210.756 157.696 210.353 159.445 209.411 160.521C207.125 162.673 195.287 164.96 185.871 164.96C179.953 164.96 178.07 164.287 175.379 161.597ZM97.0923 138.864C96.0162 141.689 99.6481 145.052 102.473 143.976C105.298 142.9 105.432 138.595 102.607 137.519C99.2445 136.308 98.0339 136.577 97.0923 138.864ZM212.774 179.487C235.104 172.089 266.714 157.427 285.681 145.59C298.594 137.654 302.495 136.443 302.495 140.478C302.495 143.707 298.594 147.204 287.699 153.795C269.27 165.229 259.585 170.206 244.923 176.259C187.62 199.665 147.266 206.659 125.744 196.84C117.538 193.073 114.445 189.038 117.538 186.482C119.018 185.272 121.036 185.675 127.223 188.634C134.353 192.266 136.101 192.535 149.822 192.401C168.385 192.132 185.468 188.634 212.774 179.487ZM61.0426 154.468C62.3877 169.802 71.6692 192.67 83.91 211.098C86.7347 215.268 89.2905 218.496 89.5595 218.227C89.9631 217.824 88.4834 214.999 86.1967 211.771C76.9152 198.185 66.4231 173.703 62.3877 155.544L60.37 146.801L61.0426 154.468ZM431.629 164.287C430.284 162.673 430.284 161.866 431.629 160.252C433.915 157.562 436.606 157.696 438.22 160.655C440.641 165.229 434.991 168.323 431.629 164.287ZM126.866 160.595C125.897 161.811 125.897 162.419 126.866 163.634C129.287 166.674 133.355 164.343 131.612 160.899C130.45 158.67 128.512 158.569 126.866 160.595ZM2.93263 174.376C0.645891 174.376 -0.699248 171.148 0.376863 168.323C0.780405 167.247 1.99103 166.305 2.93263 166.305C4.00874 166.305 5.62291 167.247 6.5645 168.323C7.90964 169.937 7.90964 170.744 6.5645 172.358C5.62291 173.434 4.00874 174.376 2.93263 174.376ZM295.769 171.417C279.493 180.16 274.92 183.254 274.516 186.213C273.709 191.19 279.762 189.845 294.424 181.64C305.723 175.317 308.01 173.569 307.607 171.148C307.069 166.978 303.975 167.112 295.769 171.417ZM19.2089 232.62C14.7699 222.397 18.4018 206.256 28.3558 191.594C33.1983 184.599 33.4674 184.33 35.8886 186.751C38.4444 189.307 37.7718 193.073 33.3328 200.337C21.6301 219.304 22.9753 232.217 37.0992 239.077C43.2869 242.171 44.7665 242.305 69.1135 242.171C97.765 242.036 116.328 239.212 147.67 230.199C166.905 224.684 170.672 224.415 170.672 228.181C170.672 229.527 169.595 231.41 168.385 232.082C163.811 234.504 136.101 241.902 117.673 245.803C62.6569 257.102 27.6833 252.394 19.2089 232.62ZM259.72 189.441C257.433 191.728 257.702 195.495 260.258 196.436C262.814 197.378 266.176 195.091 266.176 192.401C266.176 189.71 261.603 187.558 259.72 189.441ZM206.99 216.075C203.089 213.654 207.797 210.157 225.284 202.355C243.578 194.284 249.362 193.208 249.362 197.916C249.362 200.875 242.771 204.507 224.477 211.771C210.757 217.151 209.277 217.555 206.99 216.075ZM186.948 217.958C184.526 220.783 185.737 224.819 188.831 224.819C190.849 224.819 191.521 223.877 191.521 220.918C191.521 216.479 189.369 214.999 186.948 217.958ZM126.813 281.779L108.176 337.279H118.001L123.176 321.341H144.838L150.026 337.279H159.963L141.326 281.779H126.813ZM142.214 313.279L133.995 288.029L125.795 313.279H142.214ZM166.26 293.441V337.279H176.235V324.116C176.96 324.166 177.71 324.204 178.485 324.229C179.285 324.254 180.11 324.266 180.96 324.266C187.76 324.266 192.873 322.904 196.298 320.179C199.723 317.454 201.435 313.466 201.435 308.216C201.435 302.641 199.673 298.566 196.148 295.991C192.623 293.391 187.373 292.091 180.398 292.091C177.823 292.091 175.373 292.216 173.048 292.466C170.723 292.716 168.46 293.041 166.26 293.441ZM189.173 315.116C187.473 316.541 184.773 317.254 181.073 317.254C180.173 317.254 179.335 317.229 178.56 317.179C177.81 317.104 177.035 317.029 176.235 316.954V299.516C177.01 299.391 177.81 299.304 178.635 299.254C179.485 299.179 180.385 299.141 181.335 299.141C184.885 299.141 187.51 299.866 189.21 301.316C190.91 302.766 191.76 305.079 191.76 308.254C191.76 311.379 190.898 313.666 189.173 315.116ZM217.863 335.366C221.188 337.016 225.075 337.841 229.525 337.841C233.975 337.841 237.863 337.016 241.188 335.366C244.513 333.691 247.088 331.166 248.913 327.791C250.738 324.416 251.65 320.154 251.65 315.004C251.65 309.829 250.738 305.554 248.913 302.179C247.088 298.779 244.513 296.254 241.188 294.604C237.888 292.929 234 292.091 229.525 292.091C225.1 292.091 221.225 292.929 217.9 294.604C214.575 296.254 212 298.779 210.175 302.179C208.35 305.554 207.438 309.829 207.438 315.004C207.438 320.154 208.35 324.429 210.175 327.829C212 331.204 214.563 333.716 217.863 335.366ZM235.938 328.654C234.163 329.654 232.025 330.154 229.525 330.154C227.05 330.154 224.925 329.654 223.15 328.654C221.375 327.629 220.013 325.991 219.063 323.741C218.113 321.491 217.638 318.504 217.638 314.779C217.638 311.179 218.113 308.279 219.063 306.079C220.038 303.879 221.413 302.279 223.188 301.279C224.963 300.279 227.075 299.779 229.525 299.779C232 299.779 234.125 300.291 235.9 301.316C237.7 302.316 239.075 303.954 240.025 306.229C241 308.479 241.488 311.454 241.488 315.154C241.488 318.729 241.013 321.629 240.063 323.854C239.113 326.054 237.738 327.654 235.938 328.654ZM260.303 292.654V337.279H292.178V329.404H270.278V292.654H260.303ZM298.243 292.654V337.279H330.118V329.404H308.218V292.654H298.243ZM342.521 335.366C345.846 337.016 349.733 337.841 354.183 337.841C358.633 337.841 362.521 337.016 365.846 335.366C369.171 333.691 371.746 331.166 373.571 327.791C375.396 324.416 376.308 320.154 376.308 315.004C376.308 309.829 375.396 305.554 373.571 302.179C371.746 298.779 369.171 296.254 365.846 294.604C362.546 292.929 358.658 292.091 354.183 292.091C349.758 292.091 345.883 292.929 342.558 294.604C339.233 296.254 336.658 298.779 334.833 302.179C333.008 305.554 332.096 309.829 332.096 315.004C332.096 320.154 333.008 324.429 334.833 327.829C336.658 331.204 339.221 333.716 342.521 335.366ZM360.596 328.654C358.821 329.654 356.683 330.154 354.183 330.154C351.708 330.154 349.583 329.654 347.808 328.654C346.033 327.629 344.671 325.991 343.721 323.741C342.771 321.491 342.296 318.504 342.296 314.779C342.296 311.179 342.771 308.279 343.721 306.079C344.696 303.879 346.071 302.279 347.846 301.279C349.621 300.279 351.733 299.779 354.183 299.779C356.658 299.779 358.783 300.291 360.558 301.316C362.358 302.316 363.733 303.954 364.683 306.229C365.658 308.479 366.146 311.454 366.146 315.154C366.146 318.729 365.671 321.629 364.721 323.854C363.771 326.054 362.396 327.654 360.596 328.654Z" fill="white"/>
</svg>
