<svg width="90" height="90" viewBox="0 0 90 90" fill="none" xmlns="http://www.w3.org/2000/svg">
<path d="M17.7431 20.6066C17.7026 20.957 17.871 22.3571 18.1233 23.7183L18.6028 26.2227L16.6694 26.2319C14.2503 26.2382 9.48997 26.8007 8.01992 27.2567C6.50799 27.7323 6.42693 28.0506 7.08923 30.6737C7.37784 31.8394 7.60786 32.8794 7.60504 32.9827C7.61198 33.107 6.73254 33.1346 5.68003 33.0645C3.52336 32.9229 3.20088 32.9968 2.97311 33.7659C2.80406 34.2781 3.58387 36.0051 12.1285 54.3292C20.888 73.114 21.4851 74.3398 21.9779 74.467C22.9214 74.7409 53.2825 76.263 54.899 76.1211C56.2461 76.0029 56.8925 75.8034 58.7144 74.9539C61.5206 73.6453 62.1894 73.002 65.763 68.1996C68.7026 64.2793 68.8311 64.1174 76.629 53.7759C79.4499 50.0384 81.8449 46.7545 81.9762 46.4893C82.1745 46.0399 81.6193 44.7946 72.8403 25.9679C63.9148 6.82704 63.4642 5.91537 62.9617 5.76725C62.2135 5.52972 61.972 5.66785 61.0042 7.03697C60.542 7.68594 60.1356 8.18138 60.0742 8.15902C60.0337 8.1269 59.1545 7.38959 58.1455 6.48334C56.803 5.29919 56.1526 4.8886 55.7994 4.95131C55.5188 5.00567 54.2915 6.0369 53.0069 7.27332C51.753 8.52091 50.6499 9.54519 50.587 9.57449C50.5242 9.60378 50.1851 9.15001 49.8182 8.58176C48.0545 5.78379 47.5925 5.66779 45.8764 7.56436C40.6218 13.3545 37.1923 21.5825 37.5018 27.6591C37.5588 28.6014 37.5572 29.418 37.4734 29.457C37.4106 29.4863 36.8161 28.9222 36.1839 28.2227C34.7173 26.663 32.0251 24.5529 29.8464 23.3253C26.3963 21.3392 19.455 19.2475 18.2403 19.8139C18.01 19.9213 17.7726 20.287 17.7431 20.6066ZM48.4105 10.5384C48.9463 11.3594 48.9351 11.3901 48.3933 11.9232C47.2777 13.0298 43.9345 17.3423 42.7572 19.1915C42.1287 20.2495 41.2041 21.9299 40.7208 22.9711C39.8073 25.0033 39.7571 24.9503 40.2785 22.5145C41.0473 18.9691 43.31 14.4721 46.0736 10.9398C47.4659 9.16875 47.4868 9.15899 48.4105 10.5384ZM23.4141 23.0358C26.6202 24.1158 29.3209 25.5335 31.7912 27.441C32.8239 28.2342 33.6934 28.9506 33.7324 29.0344C33.7715 29.1181 32.8363 28.9168 31.668 28.5438C28.325 27.5531 26.3011 27.0946 23.5512 26.7197C22.1511 26.5057 20.9884 26.3085 20.9591 26.2457C20.6857 25.6593 20.3404 22.4039 20.5499 22.3063C20.6964 22.2379 21.9792 22.5831 23.4141 23.0358ZM11.0318 29.0137C16.1398 28.2126 21.7555 28.5004 27.7548 29.8841C30.2617 30.4488 36.385 32.5906 37.7696 33.3727L38.5637 33.8182L37.5739 34.1013C37.063 34.2631 36.2309 34.4471 35.7842 34.528C35.1309 34.6031 10.8379 33.4639 10.253 33.3032C10.14 33.2794 9.28236 30.2374 9.2253 29.6776C9.20447 29.3049 9.20447 29.3049 11.0318 29.0137ZM57.1537 8.73049C57.8711 9.33933 58.4642 9.95511 58.4599 10.1101C58.4766 10.2552 54.9435 15.0897 50.62 20.8536C43.8834 29.8079 42.5777 31.4366 41.525 32.1314C40.8716 32.5891 40.2726 32.9449 40.2112 32.9225C40.006 32.8652 40.7915 29.465 41.4999 27.3755C43.4266 21.5564 46.4962 17.0401 53.0967 10.4184C54.574 8.93912 55.807 7.7013 55.8182 7.67059C55.8503 7.63012 56.4364 8.12166 57.1537 8.73049ZM9.72468 35.6147C11.7069 35.7102 18.0959 36.0708 23.9797 36.3866L34.6221 36.9565L43.2156 55.3853C47.942 65.5212 51.7267 73.8015 51.6025 73.8085C51.354 73.8224 46.6163 73.5585 35.4783 72.9648C30.4517 72.6827 25.5897 72.4258 24.7117 72.4018L23.0896 72.3679L14.4961 53.9391C9.76973 43.8032 5.96548 35.481 6.02831 35.4517C6.09113 35.4224 7.75367 35.4885 9.72468 35.6147ZM71.0293 27.5517L79.6033 45.9386L72.8122 54.9948C69.0585 59.9576 65.2824 64.9819 64.404 66.1053C63.5354 67.2497 62.7827 68.3146 62.6961 68.457C62.6402 68.6105 62.5118 68.7724 62.428 68.8115C62.3442 68.8505 58.3934 60.5966 53.6767 50.4817L45.093 32.0739L51.669 23.3219C55.2733 18.5308 59.1039 13.4046 60.1875 11.956C61.2614 10.4864 62.204 9.28198 62.299 9.21221C62.3828 9.17315 66.3029 17.4159 71.0293 27.5517ZM50.9478 50.097L58.4769 66.2432L57.7704 66.7511C56.8224 67.3971 54.0371 68.6959 53.1213 68.919L52.4037 69.0751L44.8747 52.929L37.3456 36.7828L40.3822 35.3669L43.409 33.93L50.9478 50.097ZM60.1272 69.7823L60.7229 71.0598L59.6464 71.8677C58.2962 72.8542 57.312 73.3132 55.814 73.6548L54.6595 73.9127L54.0638 72.6352L53.4584 71.3368L56.495 69.9209L59.5315 68.5049L60.1272 69.7823Z" fill="white"/>
<path d="M61.9723 18.5174C61.672 18.9123 58.745 22.7503 55.4955 27.0446C52.2459 31.3389 49.5185 35.0583 49.471 35.2844C49.3312 35.8595 52.3557 42.4548 52.953 42.9156C53.6019 43.3778 54.3294 42.8602 55.8641 40.7932C56.6685 39.7298 59.5536 35.9114 62.2781 32.2953C65.0026 28.6793 67.258 25.5879 67.2832 25.4232C67.2986 25.2376 66.5816 23.4813 65.6539 21.4918C64.0328 18.0155 63.9533 17.8996 63.367 17.7905C62.5854 17.6451 62.6272 17.6256 61.9723 18.5174ZM63.8401 23.1789L64.7147 25.2187L59.2768 32.4201L53.8487 39.6424L52.8973 37.766C52.388 36.7287 52.0017 35.736 52.0576 35.5825C52.1805 35.2447 62.5549 21.4071 62.8076 21.2383C62.8914 21.1992 63.3434 22.0593 63.8401 23.1789Z" fill="white"/>
<path d="M41.2102 39.4935C41.1096 39.7699 42.2576 42.3959 45.7829 49.9559C49.9332 58.8562 50.5512 60.0722 50.9811 60.2287C51.2366 60.3391 51.64 60.3294 51.8494 60.2318C52.0588 60.1341 52.3255 59.8313 52.4052 59.5647C52.5616 59.1348 52.0274 57.8797 47.8771 48.9794C44.3518 41.4194 43.0781 38.8519 42.8017 38.7513C42.5868 38.6731 42.1819 38.7344 41.8888 38.8711C41.5956 39.0078 41.2884 39.2785 41.2102 39.4935Z" fill="white"/>
<path d="M51.7819 61.9459C51.6478 62.3144 51.8082 62.877 52.5113 64.3848C53.478 66.4581 53.9414 66.9049 54.779 66.5143C55.6167 66.1237 55.5722 65.4815 54.6054 63.4083C53.6387 61.3351 53.1754 60.8882 52.3377 61.2788C52.1283 61.3765 51.8616 61.6793 51.7819 61.9459Z" fill="white"/>
</svg>
