<svg width="488" height="252" viewBox="0 0 488 252" fill="none" xmlns="http://www.w3.org/2000/svg">
<path d="M381.858 1.65998C345.001 7.44408 317.291 15.1114 280.973 29.2353C261.468 36.7681 258.912 38.2478 260.258 41.6106C261.468 44.9735 264.293 44.4354 279.897 37.9787C321.865 20.3574 373.115 8.78922 410.106 8.52019C432.973 8.38568 442.389 10.4034 450.057 17.3981C454.361 21.4335 454.765 22.5096 454.765 28.8318C454.765 32.7327 453.958 37.8442 453.016 40.2655C447.77 53.1788 428.131 75.6426 399.614 100.662C386.432 112.365 384.683 114.383 385.894 116.669C386.701 118.015 388.046 119.225 388.987 119.225C391.947 119.091 420.06 95.5507 432.032 83.0409C453.554 60.3081 463.105 42.9558 462.836 26.8141C462.566 16.053 454.899 7.17506 441.986 3.00512C431.897 -0.357725 398.672 -1.03029 381.858 1.65998Z" fill="white"/>
<path d="M379.303 29.5044C377.016 32.3292 378.899 36.0956 382.397 35.5576C384.414 35.2885 385.221 34.2124 385.221 31.7912C385.221 28.0248 381.724 26.6797 379.303 29.5044Z" fill="white"/>
<path d="M141.348 44.1665C138.388 47.1258 139.464 50.6232 143.096 50.6232C147.132 50.6232 148.88 47.3948 146.459 44.57C144.441 42.1488 143.5 42.0143 141.348 44.1665Z" fill="white"/>
<path d="M235.776 49.816C234.566 52.7753 236.314 54.6585 240.081 54.6585C242.906 54.6585 243.444 54.1205 243.04 51.5647C242.502 48.0673 236.987 46.5877 235.776 49.816Z" fill="white"/>
<path d="M312.584 50.6231C295.5 53.0443 268.194 61.3842 244.654 71.4727C211.833 85.4622 161.256 114.517 148.342 126.623C143.231 131.466 142.155 136.712 146.325 136.712C147.67 136.712 154.126 132.677 160.718 127.834C192.597 103.891 233.355 82.7719 272.23 69.724C297.249 61.3842 308.414 59.501 330.34 59.3665C347.557 59.3665 349.71 59.6355 353.207 62.1913C359.664 66.8992 360.874 71.0692 358.453 79.409C355.628 88.9595 355.763 89.6321 359.798 89.6321C364.103 89.6321 367.331 82.6374 367.6 72.5488C367.734 66.3612 367.196 65.0161 363.161 60.8461C356.301 53.7169 347.288 50.4885 332.895 49.9505C326.17 49.6815 317.023 49.9505 312.584 50.6231Z" fill="white"/>
<path d="M203.089 60.7116C167.04 78.7365 112.831 119.225 111.754 129.045C111.351 132.139 111.754 132.677 114.848 132.677C117.404 132.677 123.592 128.372 136.505 117.477C161.794 96.4923 183.181 81.8303 203.628 71.3382C220.307 62.8639 230.665 56.4072 229.454 55.1966C229.185 54.793 226.898 53.9859 224.612 53.3134C220.845 52.2373 218.424 53.0443 203.089 60.7116Z" fill="white"/>
<path d="M480.995 65.8231C479.919 68.7824 483.282 72.6833 485.972 71.7417C489.335 70.3966 488.259 64.8815 484.627 64.3435C483.013 64.0744 481.399 64.747 480.995 65.8231Z" fill="white"/>
<path d="M291.734 79.0055C289.178 79.6781 274.382 86.4038 259.047 94.0711C236.718 104.967 230.934 108.464 230.261 110.885C228.916 116.4 232.01 117.611 238.332 113.979C257.836 103.084 292.792 87.1986 295.617 87.1986C311.079 82.9737 311.079 90.7296 304.764 96.3456C298.468 104.854 224.47 141.24 243.134 142.248C246.766 143.325 306.187 108.452 317.285 96.3456C325.86 81.1333 322.329 70.9542 291.734 79.0055Z" fill="white"/>
<path d="M59.9666 95.0127C52.7028 102.949 48.1294 113.038 47.1878 123.126C46.3807 131.197 45.9771 132.004 43.4214 131.6C39.7895 131.062 38.8479 134.156 38.8479 146.128C38.8479 155.678 41.4037 162.808 47.3223 169.802C51.6267 174.914 52.0303 177.604 48.2639 176.394C44.7665 175.317 44.901 177.066 48.2639 183.926C50.5506 188.231 51.6267 189.172 53.6444 188.5C55.5276 187.827 56.3347 188.231 56.3347 189.845C56.3347 190.921 57.2763 192.266 58.4869 192.804C59.563 193.208 60.2356 194.418 59.8321 195.36C59.025 197.512 64.1365 200.472 70.8622 201.951C75.8392 203.027 76.1083 202.355 72.6109 196.705C68.3065 189.71 61.9843 172.762 59.8321 161.866C57.1418 148.953 57.0073 133.618 59.563 131.466C61.0427 130.255 61.5808 130.928 62.2533 134.963C62.6569 137.788 63.0604 141.958 63.0604 144.245C63.0604 155.678 78.126 198.588 82.1614 198.588C83.5065 198.588 87.811 189.307 89.4251 183.254C90.2322 179.756 90.0977 179.487 87.4074 180.429C84.0446 181.505 83.9101 180.295 86.6003 173.972C88.6181 168.995 89.2906 157.427 87.811 151.778C87.0039 148.818 86.7349 148.953 82.2959 153.795L77.7224 158.907L78.5295 154.199C79.0676 151.643 79.7401 144.379 80.1437 138.057L80.8162 126.623L78.126 129.045C76.5118 130.524 74.7631 131.197 73.956 130.659C73.149 130.255 71.2658 125.682 69.6516 120.57C68.1719 115.459 66.2887 111.423 65.4817 111.558C64.6746 111.692 63.8675 110.616 63.733 109.137C63.5985 107.657 62.9259 105.37 62.3878 104.025C61.7153 102.411 61.9843 101.738 63.5985 101.738C65.2126 101.738 65.7507 100.393 65.7507 95.6852C65.7507 92.3224 65.4817 89.6321 65.2126 89.6321C64.9436 89.6321 62.5224 92.0534 59.9666 95.0127Z" fill="white"/>
<path d="M363.564 99.5862C362.892 101.335 362.219 101.335 359.933 100.124C357.511 98.9136 356.704 99.1826 354.417 102.142C352.4 104.698 350.786 105.505 348.768 104.967C344.598 103.891 342.177 110.885 342.177 124.068V134.963L338.141 133.215C328.456 129.179 314.87 129.314 316.485 133.484C316.888 134.56 317.561 136.174 317.964 137.116C318.502 138.326 316.754 139.806 312.718 141.285C305.454 144.11 304.513 145.186 306.531 148.684C307.607 150.836 307.338 151.509 305.051 152.181C303.571 152.719 302.495 153.526 302.764 154.199C303.168 155.275 325.766 180.833 335.72 191.459L339.755 195.764L360.471 190.383C375.671 186.348 382.127 184.061 384.683 181.64C387.911 178.546 402.035 144.11 402.035 139.268C402.035 137.385 368.003 98.7791 365.582 97.972C364.91 97.703 363.968 98.3755 363.564 99.5862ZM360.74 104.025C361.547 105.505 350.248 135.232 348.23 137.25C346.885 138.461 346.75 136.981 347.288 130.39C348.364 117.207 357.78 98.9136 360.74 104.025ZM379.303 116.804C386.163 124.471 393.561 132.542 395.713 134.963L399.749 139.268L394.099 154.333C391.005 162.673 388.046 170.34 387.508 171.282C386.835 172.493 381.455 167.516 371.097 155.947C362.623 146.666 355.09 138.057 354.417 137.116C353.341 135.098 364.102 103.084 365.851 103.084C366.389 103.084 372.442 109.271 379.303 116.804ZM349.575 109.406C349.44 110.078 348.364 113.845 346.885 117.88C344.598 124.202 344.329 124.74 344.194 121.108C344.194 116.131 346.616 108.464 348.364 108.464C349.037 108.464 349.575 108.868 349.575 109.406ZM331.012 134.291L338.141 135.905L330.743 136.981C322.269 138.057 319.982 137.654 319.982 134.694C319.982 132.273 321.731 132.139 331.012 134.291ZM344.194 140.747C344.194 141.42 341.639 142.631 338.545 143.438C335.316 144.245 328.322 146.128 322.941 147.608C313.256 150.298 309.221 150.298 309.221 147.608C309.221 144.11 324.152 139.671 336.527 139.537C340.697 139.402 344.194 139.94 344.194 140.747ZM366.255 155.14C374.191 163.749 380.513 171.148 380.513 171.686C380.513 172.224 379.303 173.703 377.823 175.048C375.402 177.201 374.864 177.335 373.249 175.587C372.308 174.51 365.582 167.112 358.318 159.176C345.54 145.052 345.271 144.648 347.557 142.093C348.902 140.613 350.517 139.402 351.055 139.402C351.593 139.402 358.453 146.397 366.255 155.14ZM358.856 164.422C367.869 174.51 375.133 182.85 374.864 183.119C373.787 184.195 342.446 191.997 340.966 191.594C339.217 191.19 307.876 156.889 307.876 155.409C307.876 154.468 336.527 146.397 340.294 146.262C341.504 146.128 349.844 154.333 358.856 164.422ZM385.087 175.587C385.49 176.125 384.414 178.008 382.665 179.622C378.764 183.254 376.343 180.967 379.975 176.932C382.531 174.107 384.011 173.703 385.087 175.587Z" fill="white"/>
<path d="M367.869 115.324C366.793 118.015 364.237 124.337 362.489 129.179L359.126 138.057L363.027 142.496L366.928 146.801L368.945 141.958C370.021 139.268 372.577 132.946 374.326 128.103L377.689 119.225L373.788 114.786L369.887 110.482L367.869 115.324ZM372.981 118.822C374.057 121.377 367.331 140.747 365.448 140.747C362.623 140.747 363.027 136.039 366.389 126.623C370.156 116.4 371.501 114.786 372.981 118.822Z" fill="white"/>
<path d="M350.92 145.859C350.92 147.742 370.963 168.323 371.097 166.574C371.097 165.498 367.062 160.252 362.085 154.737C353.88 145.59 350.92 143.169 350.92 145.859Z" fill="white"/>
<path d="M372.442 169.533C372.442 170.744 373.384 172.089 374.46 172.627C377.823 173.838 378.092 172.358 375.133 169.668C372.711 167.381 372.442 167.381 372.442 169.533Z" fill="white"/>
<path d="M28.0868 114.383C28.0868 115.593 28.7594 116.535 29.4319 116.535C30.239 116.535 30.7771 115.997 30.7771 115.324C30.7771 114.517 30.239 113.576 29.4319 113.172C28.7594 112.769 28.0868 113.307 28.0868 114.383Z" fill="white"/>
<path d="M33.0638 113.441C32.5257 113.845 32.1222 114.921 32.1222 115.728C32.1222 116.535 32.7948 116.4 33.7364 115.459C34.5434 114.652 34.947 113.576 34.678 113.172C34.2744 112.768 33.4673 112.903 33.0638 113.441Z" fill="white"/>
<path d="M211.564 115.862C210.488 118.687 211.833 121.915 214.119 121.915C215.196 121.915 216.81 120.974 217.751 119.898C219.096 118.284 219.096 117.477 217.751 115.862C216.81 114.786 215.196 113.845 214.119 113.845C213.178 113.845 211.967 114.786 211.564 115.862Z" fill="white"/>
<path d="M328.322 115.459C326.035 117.746 326.304 120.301 329.263 121.781C332.626 123.664 335.989 120.032 333.971 116.804C332.088 113.979 330.34 113.441 328.322 115.459Z" fill="white"/>
<path d="M27.4142 119.225C27.0107 119.898 27.1452 120.57 27.9523 120.57C28.6248 120.57 29.7009 119.898 30.1045 119.225C30.508 118.418 30.3735 117.88 29.5664 117.88C28.8939 117.88 27.8177 118.418 27.4142 119.225Z" fill="white"/>
<path d="M32.1222 119.225C32.1222 119.898 32.7948 120.57 33.4673 120.57C34.2744 120.57 34.8125 119.898 34.8125 119.225C34.8125 118.418 34.2744 117.88 33.4673 117.88C32.7948 117.88 32.1222 118.418 32.1222 119.225Z" fill="white"/>
<path d="M188.293 131.735C172.958 144.783 168.519 154.871 175.379 161.597C178.07 164.287 179.953 164.96 185.871 164.96C195.287 164.96 207.125 162.673 209.411 160.521C210.353 159.445 210.756 157.696 210.218 156.351C209.411 154.333 208.335 154.064 203.089 155.006C199.726 155.678 193.27 156.217 188.831 156.217C176.59 156.217 177.128 153.661 191.521 139.94C199.726 132.273 203.089 128.103 202.551 126.758C201.071 122.992 196.901 124.471 188.293 131.735Z" fill="white"/>
<path d="M97.0923 138.864C96.0162 141.689 99.6481 145.052 102.473 143.976C105.298 142.9 105.432 138.595 102.607 137.519C99.2446 136.308 98.0339 136.577 97.0923 138.864Z" fill="white"/>
<path d="M285.681 145.59C266.714 157.427 235.104 172.089 212.774 179.487C185.468 188.634 168.385 192.132 149.822 192.401C136.101 192.535 134.353 192.266 127.223 188.634C121.036 185.675 119.018 185.272 117.538 186.482C114.445 189.038 117.538 193.073 125.744 196.84C147.266 206.659 187.62 199.665 244.923 176.259C259.585 170.206 269.27 165.229 287.699 153.795C298.594 147.204 302.495 143.707 302.495 140.478C302.495 136.443 298.594 137.654 285.681 145.59Z" fill="white"/>
<path d="M61.0426 154.468C62.3877 169.802 71.6692 192.67 83.9099 211.098C86.7347 215.268 89.2905 218.496 89.5595 218.227C89.9631 217.824 88.4834 214.999 86.1967 211.771C76.9152 198.185 66.4231 173.703 62.3877 155.544L60.37 146.801L61.0426 154.468Z" fill="white"/>
<path d="M431.629 160.252C430.284 161.866 430.284 162.673 431.629 164.287C434.992 168.323 440.641 165.229 438.22 160.655C436.606 157.696 433.915 157.562 431.629 160.252Z" fill="white"/>
<path d="M126.866 160.595C125.897 161.811 125.897 162.419 126.866 163.634C129.287 166.673 133.355 164.343 131.612 160.899C130.45 158.67 128.512 158.569 126.866 160.595Z" fill="white"/>
<path d="M0.376863 168.323C-0.699248 171.148 0.645891 174.376 2.93263 174.376C4.00874 174.376 5.62291 173.434 6.5645 172.358C7.90964 170.744 7.90964 169.937 6.5645 168.323C5.62291 167.247 4.00874 166.305 2.93263 166.305C1.99103 166.305 0.780405 167.247 0.376863 168.323Z" fill="white"/>
<path d="M295.769 171.417C279.493 180.16 274.92 183.254 274.516 186.213C273.709 191.19 279.762 189.845 294.424 181.64C305.724 175.317 308.01 173.569 307.607 171.148C307.069 166.978 303.975 167.112 295.769 171.417Z" fill="white"/>
<path d="M28.3558 191.594C18.4018 206.256 14.7699 222.397 19.2089 232.62C27.6833 252.394 62.6569 257.102 117.673 245.803C136.101 241.902 163.811 234.504 168.385 232.082C169.595 231.41 170.672 229.527 170.672 228.181C170.672 224.415 166.905 224.684 147.67 230.199C116.328 239.212 97.765 242.036 69.1136 242.171C44.7665 242.305 43.2869 242.171 37.0992 239.077C22.9753 232.217 21.6301 219.304 33.3328 200.337C37.7718 193.073 38.4444 189.307 35.8886 186.751C33.4674 184.33 33.1983 184.599 28.3558 191.594Z" fill="white"/>
<path d="M259.72 189.441C257.433 191.728 257.702 195.495 260.258 196.436C262.814 197.378 266.176 195.091 266.176 192.401C266.176 189.71 261.603 187.558 259.72 189.441Z" fill="white"/>
<path d="M225.284 202.355C207.797 210.157 203.089 213.654 206.99 216.075C209.277 217.555 210.757 217.151 224.477 211.771C242.771 204.507 249.362 200.875 249.362 197.916C249.362 193.208 243.578 194.284 225.284 202.355Z" fill="white"/>
<path d="M186.948 217.958C184.526 220.783 185.737 224.819 188.831 224.819C190.849 224.819 191.521 223.877 191.521 220.918C191.521 216.479 189.369 214.999 186.948 217.958Z" fill="white"/>
</svg>
